<?xml version="1.0" standalone="no"?><!DOCTYPE svg PUBLIC "-//W3C//DTD SVG 1.1//EN" "http://www.w3.org/Graphics/SVG/1.1/DTD/svg11.dtd"><svg t="1658761549385" class="icon" viewBox="0 0 1024 1024" version="1.1" xmlns="http://www.w3.org/2000/svg" p-id="1660" xmlns:xlink="http://www.w3.org/1999/xlink" width="200" height="200"><defs><style type="text/css"></style></defs><path d="M538.947368 538.947368v188.631579a26.947368 26.947368 0 1 1-53.894736 0V538.947368H296.421053a26.947368 26.947368 0 0 1 0-53.894736H485.052632V296.421053a26.947368 26.947368 0 0 1 53.894736 0V485.052632h188.631579a26.947368 26.947368 0 1 1 0 53.894736H538.947368z m-26.947368 485.052632a512 512 0 1 1 0-1024 512 512 0 0 1 0 1024z m0-53.894737a458.105263 458.105263 0 1 0 0-916.210526 458.105263 458.105263 0 0 0 0 916.210526z" fill="#000000" p-id="1661"></path></svg>